<?xml version="1.0" encoding="utf-8" ?><svg xmlns="http://www.w3.org/2000/svg" xmlns:xlink="http://www.w3.org/1999/xlink" width="1024" height="1024" viewBox="0 0 1024 1024"><path fill="#F8F9FD" transform="scale(2 2)" d="M312.737 183.825L193.912 183.815C162.527 183.808 160.625 191.173 160.7 221.162C144.688 232.76 138.334 233.998 119.078 233.779L119.078 248.997L111.071 248.997L111.071 264.522C112.964 264.512 115.841 264.404 117.657 264.522L118.75 264.729C119.652 266.065 118.699 291.713 119.078 295.45L111.071 295.45L111.071 311.47L119.078 311.47L119.078 375.673C100.99 374.573 78.6814 379.25 78.4819 351.842L78.4757 89.0385C78.4517 70.1867 80.271 56.0427 102.442 55.9691L271.853 56.017C283.794 56.012 297.095 53.7695 306.221 62.5288C313.796 69.7986 312.747 79.5364 312.745 89.3818L312.737 183.825ZM166.009 104.183L111.071 104.183L111.071 119.63L226.125 119.63L280.669 119.63L280.669 104.183L166.009 104.183ZM144.489 152.835L111.071 152.835L111.071 167.935L247.1 167.935L280.669 167.935L280.669 152.835L144.489 152.835ZM111.071 199.555L111.071 215.153L144.489 215.153L144.489 199.555L111.071 199.555Z"/><path fill="#1D3557" transform="scale(2 2)" d="M111.071 104.183L166.009 104.183L280.669 104.183L280.669 119.63L226.125 119.63L111.071 119.63L111.071 104.183Z"/><path fill="#1D3557" transform="scale(2 2)" d="M111.071 152.835L144.489 152.835L280.669 152.835L280.669 167.935L247.1 167.935L111.071 167.935L111.071 152.835Z"/><path fill="#2E4563" transform="scale(2 2)" d="M160.7 221.162C160.625 191.173 162.527 183.808 193.912 183.815L312.737 183.825L359.533 183.825C359.544 189.472 359.874 199.449 359.533 204.724C335.214 199.387 305.079 211.695 287.437 228.077C283.349 231.873 280.827 236.179 277.272 239.993L192.071 240.005C188.386 240.012 183.86 240.14 180.221 239.993C180.203 245.029 180.141 250.132 180.221 255.162L268.635 255.162C265.937 261.382 264.788 265.913 263.395 272.463L180.221 272.463L180.221 287.526L261.575 287.526C261.492 292.79 261.7 299.214 262.392 304.437L180.221 304.437C180.195 308.958 180.002 315.091 180.221 319.499L256.842 319.478C259.623 319.468 264.127 319.31 266.746 319.499C269.145 325.769 271.809 330.535 275.012 336.377C266.138 336.645 255.893 336.378 246.89 336.377L180.221 336.377C180.211 341.242 180.097 346.502 180.221 351.334L287.76 351.334C294.952 359.94 304.634 362.754 312.737 368.406L180.221 368.406L180.221 383.5C184.892 383.272 190.925 383.496 195.758 383.498L323.012 383.5C322.846 379.57 322.576 375.331 323.012 371.436C331.685 373.637 339.777 375.32 348.775 375.296C350.863 375.29 358.037 374.22 359.533 374.924L359.521 428.128C359.403 456.449 343.487 455.996 320.14 455.994L144.489 455.984C152.447 451.635 159.512 449.892 160.358 438.286C160.941 430.282 160.708 421.955 160.707 413.884L160.7 221.162ZM180.221 400.424L180.221 415.405L275.563 415.405C291.188 415.405 307.431 415.632 323.012 415.405C323.014 410.499 323.093 405.309 323.012 400.424L180.221 400.424Z"/><path fill="#1D3557" transform="scale(2 2)" d="M111.071 215.153L111.071 199.555L144.489 199.555L144.489 215.153L111.071 215.153Z"/><path fill="#2B7FFF" transform="scale(2 2)" d="M277.272 239.993C280.827 236.179 283.349 231.873 287.437 228.077C305.079 211.695 335.214 199.387 359.533 204.724C360.351 205.2 365.185 205.866 366.53 206.178C447.736 225.023 457.852 338.202 380.591 368.605C373.027 371.582 367.406 373.073 359.533 374.924C358.037 374.22 350.863 375.29 348.775 375.296C339.777 375.32 331.685 373.637 323.012 371.436C320.049 370.716 315.595 368.46 312.737 368.406C304.634 362.754 294.952 359.94 287.76 351.334C282.382 346.587 278.991 339.973 275.012 336.377C271.809 330.535 269.145 325.769 266.746 319.499C265.473 315.057 263.817 308.586 262.392 304.437C261.7 299.214 261.492 292.79 261.575 287.526C261.867 282.177 262.287 277.706 263.395 272.463C264.788 265.913 265.937 261.382 268.635 255.162C271.608 250.26 273.979 245.175 277.272 239.993ZM342.51 223.022C305.707 225.764 278.113 257.849 280.909 294.647C283.705 331.446 315.83 358.993 352.625 356.143C389.342 353.299 416.82 321.255 414.03 284.533C411.239 247.811 379.236 220.286 342.51 223.022Z"/><path fill="#BBCFEE" transform="scale(2 2)" d="M119.078 233.779C138.334 233.998 144.688 232.76 160.7 221.162L160.707 413.884C160.708 421.955 160.941 430.282 160.358 438.286C159.512 449.892 152.447 451.635 144.489 455.984C134.814 458.17 122.005 449.228 120.028 439.772C118.542 432.666 119.07 422.062 119.069 414.426L119.078 375.673L119.078 311.47C119.365 308.17 119.136 299.059 119.078 295.45C118.699 291.713 119.652 266.065 118.75 264.729L117.657 264.522C120.587 264.382 119.092 252.207 119.078 248.997L119.078 233.779Z"/><path fill="#2B7FFF" transform="scale(2 2)" d="M343.747 247.492C343.748 245.633 343.553 230.277 343.747 229.8C346.731 229.744 349.72 229.781 352.705 229.8L352.705 247.492L343.747 247.492Z"/><path fill="#1D3557" transform="scale(2 2)" d="M111.071 248.997L119.078 248.997C119.092 252.207 120.587 264.382 117.657 264.522C115.841 264.404 112.964 264.512 111.071 264.522L111.071 248.997Z"/><path fill="#2B7FFF" transform="scale(2 2)" d="M345.258 276.703C345.155 269.285 345.264 261.755 345.258 254.327L351.38 254.327L351.38 276.703C349.372 276.674 347.598 276.873 345.609 277.093L345.258 276.703Z"/><path fill="#2B7FFF" transform="scale(2 2)" d="M345.258 276.703L345.609 277.093C347.598 276.873 349.372 276.674 351.38 276.703C356.456 276.907 360.246 282.855 360.711 287.526C360.836 289.343 361.013 291.996 360.711 293.735C356.667 301.732 343.205 303.905 338.287 294.009C332.675 282.716 344.181 278.988 345.258 276.703Z"/><path fill="#2B7FFF" transform="scale(2 2)" d="M390.512 293.735L390.512 284.601L406.749 284.601L406.749 293.735C401.431 293.853 395.849 293.752 390.512 293.735Z"/><path fill="#2B7FFF" transform="scale(2 2)" d="M287.76 293.735L287.76 285.255L305.472 285.255L305.472 293.735C299.705 293.714 293.459 293.925 287.76 293.735Z"/><path fill="#2B7FFF" transform="scale(2 2)" d="M360.711 287.526C367.766 287.295 375.697 287.539 382.862 287.526C382.858 289.513 382.798 291.771 382.862 293.735C380.521 293.476 376.888 293.683 374.39 293.712L360.711 293.735C361.013 291.996 360.836 289.343 360.711 287.526Z"/><path fill="#1D3557" transform="scale(2 2)" d="M111.071 295.45L119.078 295.45C119.136 299.059 119.365 308.17 119.078 311.47L111.071 311.47L111.071 295.45Z"/><path fill="#2B7FFF" transform="scale(2 2)" d="M343.747 349.235L343.747 332.061L351.38 332.061L351.38 349.235L343.747 349.235Z"/></svg>