<?xml version="1.0" encoding="utf-8" ?><svg xmlns="http://www.w3.org/2000/svg" xmlns:xlink="http://www.w3.org/1999/xlink" width="1024" height="1024" viewBox="0 0 1024 1024"><path fill="#2B7FFF" transform="scale(2 2)" d="M194.753 147.529C194.379 145.342 194.642 142.92 194.918 140.739C198.233 114.595 220.612 97.1274 246.812 100.577C262.418 102.631 272.537 110.601 281.824 122.764C281.826 126.004 284.281 129.4 285.182 132.508C292.013 156.067 281.365 167.563 266.713 182.294L252.067 197.301C250.723 198.634 249.386 199.973 247.987 201.25L252.067 201.25C263.624 201.374 275.192 201.238 286.75 201.25L286.75 203.236C286.397 206.399 286.727 209.81 286.738 213.009L286.75 233.256L214.892 233.264C211.819 233.265 198.459 232.728 196.582 233.256C193.501 232.773 194.779 228.077 194.797 225.848C194.964 205.455 190.994 210.989 205.481 197.272C212.018 191.082 218.709 184.779 224.694 178.054C227.801 176.402 248.828 156.085 252.039 151.822C264.527 135.245 230.524 118.057 226.423 147.529L205.628 147.517C202.107 147.505 198.23 147.103 194.753 147.529Z"/><path fill="#BBCFEE" transform="scale(2 2)" d="M281.824 122.764C294.226 134.378 308.513 146.107 309.087 164.061C309.503 177.069 298.501 195.529 286.75 201.25C275.192 201.238 263.624 201.374 252.067 201.25C251.758 201.081 251.358 201.015 251.018 200.92L251.113 200.598C252.891 199.76 252.824 198.87 252.067 197.301L266.713 182.294C281.365 167.563 292.013 156.067 285.182 132.508C284.281 129.4 281.826 126.004 281.824 122.764Z"/><path fill="#BBCFEE" transform="scale(2 2)" d="M194.753 147.529C198.23 147.103 202.107 147.505 205.628 147.517L226.423 147.529C230.524 118.057 264.527 135.245 252.039 151.822C248.828 156.085 227.801 176.402 224.694 178.054C218.325 172.123 199.567 154.551 194.753 147.529Z"/><path fill="#1D3557" transform="scale(2 2)" d="M360.196 136.008C364.949 136.029 369.708 136.102 374.46 136.008C377.439 135.645 375.927 142.925 375.925 145.554L375.911 169.078L405.834 169.078L405.834 183.745L375.911 183.745L375.911 214.523L360.196 214.523C359.877 211.353 360.179 207.874 360.183 204.666L360.196 183.745C356.816 183.442 353.359 183.719 349.965 183.729L329.363 183.745C329.296 178.861 329.362 173.963 329.363 169.078L360.196 169.078C359.802 158.11 360.19 146.991 360.196 136.008Z"/><path fill="#BBCFEE" transform="scale(2 2)" d="M247.987 201.25C249.386 199.973 250.723 198.634 252.067 197.301C252.824 198.87 252.891 199.76 251.113 200.598L251.018 200.92C251.358 201.015 251.758 201.081 252.067 201.25L247.987 201.25Z"/><path fill="#1D3557" transform="scale(2 2)" d="M65.7464 200.272L129.93 200.272C140.165 200.273 150.93 199.839 161.087 200.272C160.182 203.397 161.322 224.685 161.087 229.725L123.693 229.723C115.505 229.718 107.257 229.501 99.0739 229.725C98.7521 230.324 99.043 240.128 99.0739 241.703C100.45 241.335 101.968 240.896 103.107 240.007C121.298 240.154 132.776 241.021 146.495 253.714C147.272 254.433 148.112 255.472 148.967 256.068C151.819 259.603 154.525 263.31 157.401 266.806C157.203 267.381 161.849 283.551 161.087 290.879L160.899 289.265L160.74 289.393C158.371 318.931 133.161 336.55 104.467 334.228C100.646 333.919 95.9134 332.592 92.1996 332.891C89.9694 332.075 87.1465 329.816 84.7307 330.759C72.0434 312.385 65.6394 321.529 65.7464 290.232L88.0312 290.232C91.2054 290.321 94.3959 290.293 97.5708 290.232C99.2568 294.857 102.988 304.351 109.294 303.57C119.232 309.496 130.941 294.687 127.252 282.503C121.382 270.301 113.258 271.51 101.637 271.498L83.5898 271.495C79.1369 271.493 74.0455 270.864 69.6734 271.499C68.3526 271.666 67.0697 271.572 65.7464 271.499L65.7464 200.272Z"/><path fill="#BBCFEE" transform="scale(2 2)" d="M161.087 200.272C165.452 202.863 178.574 215.946 182.355 220.682C182.587 224.602 182.366 228.598 182.361 232.53L182.355 256.068C172.349 256.175 158.536 255.127 148.967 256.068C148.112 255.472 147.272 254.433 146.495 253.714C132.776 241.021 121.298 240.154 103.107 240.007L103.107 233.256C104.968 233.505 107.108 233.304 108.993 233.293L161.087 233.256L161.087 229.725C161.322 224.685 160.182 203.397 161.087 200.272Z"/><path fill="#BBCFEE" transform="scale(2 2)" d="M286.75 203.236C289.864 204.313 304.418 218.349 305.807 221.175C307.347 224.307 306.656 249.27 306.651 254.66L217.472 254.66C211.64 249.25 202.012 237.204 196.582 233.256C198.459 232.728 211.819 233.265 214.892 233.264L286.75 233.256L286.738 213.009C286.727 209.81 286.397 206.399 286.75 203.236Z"/><path fill="#1D3557" transform="scale(2 2)" d="M99.0739 229.725C107.257 229.501 115.505 229.718 123.693 229.723L161.087 229.725L161.087 233.256L108.993 233.293C107.108 233.304 104.968 233.505 103.107 233.256C102.513 231.873 100.297 230.624 99.0739 229.725Z"/><path fill="#2B7FFF" transform="scale(2 2)" d="M99.0739 241.703C99.043 240.128 98.7521 230.324 99.0739 229.725C100.297 230.624 102.513 231.873 103.107 233.256L103.107 240.007C101.968 240.896 100.45 241.335 99.0739 241.703Z"/><path fill="#2B7FFF" transform="scale(2 2)" d="M351.749 290.232C348.629 245.899 406.429 226.145 434.726 258.454C437.012 261.064 438.939 263.955 440.907 266.806C441.428 269.721 442.705 272.427 443.284 275.325C446.111 289.497 442.514 300.412 433.936 311.341C473.08 347.539 421.992 408.926 374.961 383.283C373.571 382.525 371.721 380.845 370.281 381.826C367.738 378.41 364.293 375.823 361.536 372.596C353.73 363.455 350.526 350.494 349.565 338.785C352.608 338.784 384.401 338.669 384.702 338.785C382.214 349.605 392.398 360.007 403.005 356.221C407.781 353.907 411.053 350.254 412.875 345.295C416.306 331.44 404.943 325.359 392.03 327.256C391.367 325.705 392.026 314.751 392.03 312.198L392.03 300.255C416.225 304.797 416.062 275.933 399.638 274.957C390.388 274.407 384.937 282.505 384.702 290.879L364.779 290.863C360.951 290.847 357.064 290.68 353.243 290.879C352.75 290.768 352.213 290.444 351.749 290.232Z"/><path fill="#2B7FFF" transform="scale(2 2)" d="M270.613 259.743L270.613 305.251L290.795 305.251L314.689 305.251C314.503 316.697 314.695 328.173 314.689 339.623L270.613 339.623L270.613 388.999L248.912 388.981C245.217 388.978 241.401 388.777 237.718 388.999C237.254 389.075 236.818 389.073 236.348 389.083L235.919 388.645C235.406 386.803 235.824 384.7 235.969 382.811C236.343 378.107 235.987 373.125 235.974 368.382L235.969 339.623L235.969 305.251C236.237 300.272 235.978 295.134 235.977 290.14L235.969 259.743C247.447 259.753 258.914 259.858 270.383 259.493L270.613 259.743Z"/><path fill="#BBCFEE" transform="scale(2 2)" d="M270.613 305.251L270.613 259.743C277.521 266.272 284.681 273.139 290.795 280.42C291.196 287.153 291.224 298.554 290.795 305.251L270.613 305.251Z"/><path fill="#BBCFEE" transform="scale(2 2)" d="M157.401 266.806C161.597 269.466 175.005 283.861 177.713 288.215C198.528 321.686 148.11 378.726 106.454 352.141C98.9752 347.367 91.3772 337.202 84.7307 330.759C87.1465 329.816 89.9694 332.075 92.1996 332.891C124.859 347.277 158.436 326.266 161.087 290.879C161.849 283.551 157.203 267.381 157.401 266.806Z"/><path fill="#BBCFEE" transform="scale(2 2)" d="M440.907 266.806C463.075 286.115 476.136 305.039 454.446 330.759C463.331 342.407 468.048 353.478 465.98 368.374C462.294 394.931 435.169 413.872 409.062 409.988C396.157 408.068 387.356 401.351 378.731 392.09C376.08 389.242 371.773 385.504 370.281 381.826C371.721 380.845 373.571 382.525 374.961 383.283C421.992 408.926 473.08 347.539 433.936 311.341C442.514 300.412 446.111 289.497 443.284 275.325C442.705 272.427 441.428 269.721 440.907 266.806Z"/><path fill="#BBCFEE" transform="scale(2 2)" d="M69.6734 271.499C74.0455 270.864 79.1369 271.493 83.5898 271.495L101.637 271.498C113.258 271.51 121.382 270.301 127.252 282.503C119.981 288.217 111.206 292.4 104.512 298.831C106.09 300.418 107.638 302.064 109.294 303.57C102.988 304.351 99.2568 294.857 97.5708 290.232C94.3959 290.293 91.2054 290.321 88.0312 290.232C85.4469 285.91 74.4499 278.83 69.6734 271.499Z"/><path fill="#BBCFEE" transform="scale(2 2)" d="M353.243 290.879C357.064 290.68 360.951 290.847 364.779 290.863L384.702 290.879C384.937 282.505 390.388 274.407 399.638 274.957C416.062 275.933 416.225 304.797 392.03 300.255L392.03 312.198C375.794 311.964 363.664 302.546 353.243 290.879Z"/><path fill="#1D3557" transform="scale(2 2)" d="M92.1996 332.891C95.9134 332.592 100.646 333.919 104.467 334.228C133.161 336.55 158.371 318.931 160.74 289.393L160.899 289.265L161.087 290.879C158.436 326.266 124.859 347.277 92.1996 332.891Z"/><path fill="#2B7FFF" transform="scale(2 2)" d="M194.012 305.251L234.606 305.251C232.124 308.02 232.475 333.333 233.005 339.623C220.273 339.627 207.476 339.358 194.753 339.623L194.375 339.374C193.443 336.095 194.008 310.74 194.012 305.251Z"/><path fill="#2B7FFF" transform="scale(2 2)" d="M234.606 305.251L235.969 305.251L235.969 339.623L233.005 339.623C232.475 333.333 232.124 308.02 234.606 305.251Z"/><path fill="#BBCFEE" transform="scale(2 2)" d="M314.689 305.251C317.989 307.149 333.496 322.248 336.164 325.874L336.164 358.942L306.142 358.949C301.039 358.951 295.89 359.141 290.795 358.942L290.795 411.195L258.855 411.195C253.422 405.189 241.712 394.672 237.718 388.999C241.401 388.777 245.217 388.978 248.912 388.981L270.613 388.999L270.613 339.623L314.689 339.623C314.695 328.173 314.503 316.697 314.689 305.251Z"/><path fill="#BBCFEE" transform="scale(2 2)" d="M392.03 327.256C404.943 325.359 416.306 331.44 412.875 345.295C407.448 342.185 398.063 331.789 392.03 327.256Z"/><path fill="#BBCFEE" transform="scale(2 2)" d="M384.702 338.785C389.311 344.152 400.176 351.841 403.005 356.221C392.398 360.007 382.214 349.605 384.702 338.785Z"/><path fill="#BBCFEE" transform="scale(2 2)" d="M194.753 339.623C207.476 339.358 220.273 339.627 233.005 339.623L235.969 339.623L235.974 368.382C235.987 373.125 236.343 378.107 235.969 382.811C235.648 380.358 235.942 377.576 235.948 375.087L235.969 358.67C227.333 358.631 218.616 358.416 209.986 358.67C205.967 354.222 197.45 344.387 194.753 339.623Z"/></svg>