<?xml version="1.0" encoding="utf-8" ?><svg xmlns="http://www.w3.org/2000/svg" xmlns:xlink="http://www.w3.org/1999/xlink" width="1024" height="1024" viewBox="0 0 1024 1024"><path fill="white" transform="scale(2 2)" d="M120.176 154.04C120.438 151.923 120.188 143.593 120.185 140.903L120.168 109.264C120.163 78.8433 119.384 74.4456 153.885 74.6381L304.636 74.6637C309.804 74.6642 317.422 73.8726 322.219 74.6588L322.192 128.657C322.107 147.137 330.988 142.258 347.54 142.255L387.769 142.264L388.221 142.214C388.453 141.667 388.355 138.418 388.427 137.381C388.617 140.523 388.29 143.274 388.276 146.377L388.422 176.491C388.418 182.457 387.789 206.425 390.09 210.317C384.959 216.097 379.597 221.445 374.377 227.115L350.914 252.099C347.16 256.059 343.411 260.269 339.575 264.123L238.563 264.121C234.176 264.122 229.691 263.978 225.312 264.414C215.036 265.438 215.438 282.124 226.271 282.344C230.131 282.422 234.093 282.239 238.004 282.241L321.717 282.299C321.884 282.283 322.052 282.267 322.219 282.251C316.878 289.29 307.097 299.31 300.71 305.659C298.889 307.493 297.503 309.077 296.142 311.303L232.823 311.272C230.446 311.252 226.957 311.024 224.684 311.409C215.134 313.028 215.335 328.141 224.967 329.412C230.522 329.83 237.171 329.523 242.796 329.519L274.308 329.509C279.342 329.508 285.357 329.35 290.312 329.519L290.619 329.916C290.297 332.252 288.543 338.764 287.643 341.096C286.35 345.675 283.867 354.096 283.041 358.53C286.911 357.221 295.583 353.715 299.267 351.937C307.026 348.451 325.446 341.823 331.724 337.056C335.363 333.736 340.949 327.272 344.458 323.494L369.573 296.319C372.141 293.52 380.572 283.995 383.313 282.251C385.068 282.741 385.345 281.37 386.842 281.167L386.263 281.286L386.715 281.118C388.199 283.233 387.728 339.769 387.773 346.174C387.789 348.396 387.23 358.857 387.769 360.511C385.118 360.287 381.294 360.481 378.496 360.496L346.181 360.511C326.708 360.421 328.465 362.934 328.515 382.08L328.518 403.993C328.511 411.973 328.047 415.39 326.908 422.856C319.524 430.587 315.959 429.483 306.036 431.21C308.533 431.356 310.185 431.317 312.685 431.21L312.419 431.419C303.378 432.506 285.103 431.202 275.121 431.204L128.92 431.222C124.049 431.221 108.074 431.535 104.206 430.256C103.423 429.267 104.285 428.672 103.745 427.324C121.02 414.905 120.189 406.7 120.19 386.005L120.176 360.511L120.176 154.04ZM227.185 115.138L168.585 115.119C145.035 115.067 153.103 132.619 161.262 133.494C167.489 133.956 174.155 133.742 180.431 133.741L221.125 133.729L278.171 133.75C281.122 133.764 283.676 133.849 286.655 133.512C296.83 132.362 296.994 116.314 287.257 115.338C281.247 114.736 273.896 115.132 267.691 115.136L227.185 115.138ZM157.356 164.57L157.356 197.804L185.814 197.815C190.022 197.817 195.934 198.021 199.958 197.804L199.958 164.57L157.356 164.57ZM227.966 170.827C217.502 171.491 214.853 181.951 221.574 187.416C225.14 190.316 237.88 189.182 242.395 189.182L356.812 189.177C369.541 188.323 369.173 172.099 358.125 170.88C354.613 170.492 348.424 170.823 344.708 170.825L227.966 170.827ZM157.356 210.317L157.356 242.723L199.958 242.723L199.958 210.317L157.356 210.317ZM225.201 216.913C215.941 219.371 213.192 234.133 227.986 235.228L342.833 235.26C347.145 235.26 355.177 235.523 359.155 235.255C368.044 231.808 369.526 220.759 360.486 217.408C357.645 216.355 333.368 216.905 328.234 216.907L240.717 216.907C235.913 216.906 229.901 216.727 225.201 216.913ZM157.356 256.194L157.356 289.859L199.958 289.859C200.364 289.417 199.957 258.604 199.958 256.194L157.356 256.194ZM157.356 302.969L157.356 335.841L185.592 335.852C190.204 335.854 195.408 335.98 199.958 335.841L199.958 302.969L157.356 302.969ZM161.985 378.276C152.39 380.329 152.809 392.538 159.353 395.523C162.851 397.119 177.838 396.462 182.468 396.462L250.889 396.452C255.528 396.454 262.449 396.679 266.926 396.445C276.27 393.753 278.281 379.148 264.35 378.287L177.377 378.268C172.58 378.266 166.655 378.085 161.985 378.276Z"/><path fill="white" transform="scale(2 2)" d="M322.219 74.6588L322.219 74.6588C323 75.6179 323.9 76.1397 324.747 77.0206L387.769 142.264L347.54 142.255C330.988 142.258 322.107 147.137 322.192 128.657L322.219 74.6588Z"/><path fill="white" transform="scale(2 2)" d="M322.219 74.6588L358.442 74.665C389.001 74.6761 388.495 75.9495 388.443 103.929L388.427 137.381C388.355 138.418 388.453 141.667 388.221 142.214L387.769 142.264L324.747 77.0206C323.9 76.1397 323 75.6179 322.219 74.6588Z"/><path fill="#1D3557" transform="scale(2 2)" d="M221.125 133.729L180.431 133.741C174.155 133.742 167.489 133.956 161.262 133.494C153.103 132.619 145.035 115.067 168.585 115.119L227.185 115.138L267.691 115.136C273.896 115.132 281.247 114.736 287.257 115.338C296.994 116.314 296.83 132.362 286.655 133.512C283.676 133.849 281.122 133.764 278.171 133.75L221.125 133.729Z"/><path fill="#BBCFEE" transform="scale(2 2)" d="M55.5511 360.511L55.5514 185.374C55.5506 153.778 55.1092 154.029 83.6155 154.05L120.176 154.04L120.176 360.511C106.393 360.305 92.05 360.523 78.2207 360.517L64.3012 360.482C61.7643 360.462 57.9511 360.307 55.5511 360.511Z"/><path fill="#2B7FFF" transform="scale(2 2)" d="M157.356 197.804L157.356 164.57L199.958 164.57L199.958 197.804C195.934 198.021 190.022 197.817 185.814 197.815L157.356 197.804Z"/><path fill="#1D3557" transform="scale(2 2)" d="M356.812 189.177L242.395 189.182C237.88 189.182 225.14 190.316 221.574 187.416C214.853 181.951 217.502 171.491 227.966 170.827L344.708 170.825C348.424 170.823 354.613 170.492 358.125 170.88C369.173 172.099 369.541 188.323 356.812 189.177Z"/><path fill="#BBCFEE" transform="scale(2 2)" d="M407.539 191.367L414.565 183.815C441.75 154.709 469.425 191.187 448.93 209.562C446.08 212.118 442.764 216.282 439.817 219.083C430.63 211.022 417.509 198.055 407.539 191.367Z"/><path fill="#2B7FFF" transform="scale(2 2)" d="M396.365 203.801C399.99 199.594 403.797 195.477 407.539 191.367C417.509 198.055 430.63 211.022 439.817 219.083C435.86 223.305 431.963 227.771 428.048 231.916C417.949 222.317 406.493 213.468 396.365 203.801Z"/><path fill="#BBCFEE" transform="scale(2 2)" d="M390.09 210.317C392.183 208.365 394.487 205.939 396.365 203.801C406.493 213.468 417.949 222.317 428.048 231.916C413.887 248.479 396.464 265.225 383.313 282.251C380.572 283.995 372.141 293.52 369.573 296.319L344.458 323.494C340.949 327.272 335.363 333.736 331.724 337.056C324.71 328.177 313.706 318.501 305.557 310.281C304.024 308.735 302.417 306.995 300.71 305.659C307.097 299.31 316.878 289.29 322.219 282.251C327.446 277.589 334.65 269.447 339.575 264.123C343.411 260.269 347.16 256.059 350.914 252.099L374.377 227.115C379.597 221.445 384.959 216.097 390.09 210.317Z"/><path fill="#2B7FFF" transform="scale(2 2)" d="M157.356 242.723L157.356 210.317L199.958 210.317L199.958 242.723L157.356 242.723Z"/><path fill="#1D3557" transform="scale(2 2)" d="M359.155 235.255C355.177 235.523 347.145 235.26 342.833 235.26L227.986 235.228C213.192 234.133 215.941 219.371 225.201 216.913C229.901 216.727 235.913 216.906 240.717 216.907L328.234 216.907C333.368 216.905 357.645 216.355 360.486 217.408C369.526 220.759 368.044 231.808 359.155 235.255Z"/><path fill="#2B7FFF" transform="scale(2 2)" d="M157.356 289.859L157.356 256.194L199.958 256.194C199.957 258.604 200.364 289.417 199.958 289.859L157.356 289.859Z"/><path fill="#1D3557" transform="scale(2 2)" d="M322.219 282.251C322.052 282.267 321.884 282.283 321.717 282.299L238.004 282.241C234.093 282.239 230.131 282.422 226.271 282.344C215.438 282.124 215.036 265.438 225.312 264.414C229.691 263.978 234.176 264.122 238.563 264.121L339.575 264.123C334.65 269.447 327.446 277.589 322.219 282.251Z"/><path fill="#2B7FFF" transform="scale(2 2)" d="M157.356 335.841L157.356 302.969L199.958 302.969L199.958 335.841C195.408 335.98 190.204 335.854 185.592 335.852L157.356 335.841Z"/><path fill="#FBC579" transform="scale(2 2)" d="M296.142 311.303C297.503 309.077 298.889 307.493 300.71 305.659C302.417 306.995 304.024 308.735 305.557 310.281C313.706 318.501 324.71 328.177 331.724 337.056C325.446 341.823 307.026 348.451 299.267 351.937C295.423 348.687 291.729 344.476 287.643 341.096C288.543 338.764 290.297 332.252 290.619 329.916L290.312 329.519C291.251 328.965 295.192 313.804 296.142 311.303Z"/><path fill="#1D3557" transform="scale(2 2)" d="M290.312 329.519C285.357 329.35 279.342 329.508 274.308 329.509L242.796 329.519C237.171 329.523 230.522 329.83 224.967 329.412C215.335 328.141 215.134 313.028 224.684 311.409C226.957 311.024 230.446 311.252 232.823 311.272L296.142 311.303C295.192 313.804 291.251 328.965 290.312 329.519Z"/><path fill="#1D3557" transform="scale(2 2)" d="M287.643 341.096C291.729 344.476 295.423 348.687 299.267 351.937C295.583 353.715 286.911 357.221 283.041 358.53C283.867 354.096 286.35 345.675 287.643 341.096Z"/><path fill="#2B7FFF" transform="scale(2 2)" d="M55.5511 360.511C57.9511 360.307 61.7643 360.462 64.3012 360.482L78.2207 360.517C92.05 360.523 106.393 360.305 120.176 360.511L120.19 386.005C120.189 406.7 121.02 414.905 103.745 427.324C90.0714 434.238 75.2059 432.26 64.1788 421.375C51.7697 409.125 55.3406 378.232 55.5511 360.511Z"/><path fill="white" transform="scale(2 2)" d="M326.908 422.856C328.047 415.39 328.511 411.973 328.518 403.993L328.515 382.08C328.465 362.934 326.708 360.421 346.181 360.511L378.496 360.496C381.294 360.481 385.118 360.287 387.769 360.511C387.949 361.451 387.866 403.483 387.769 403.855C387.752 389.57 387.994 374.742 387.769 360.511C380.426 371.603 353.564 396.061 343.514 406.157C340.202 409.484 329.982 420.829 326.908 422.856Z"/><path fill="#2B7FFF" transform="scale(2 2)" d="M387.769 360.511C387.994 374.742 387.752 389.57 387.769 403.855C387.053 419.451 373.487 431.484 358.178 431.237C353.633 431.164 349.026 431.216 344.476 431.211L312.685 431.21C310.185 431.317 308.533 431.356 306.036 431.21C315.959 429.483 319.524 430.587 326.908 422.856C329.982 420.829 340.202 409.484 343.514 406.157C353.564 396.061 380.426 371.603 387.769 360.511Z"/><path fill="#1D3557" transform="scale(2 2)" d="M266.926 396.445C262.449 396.679 255.528 396.454 250.889 396.452L182.468 396.462C177.838 396.462 162.851 397.119 159.353 395.523C152.809 392.538 152.39 380.329 161.985 378.276C166.655 378.085 172.58 378.266 177.377 378.268L264.35 378.287C278.281 379.148 276.27 393.753 266.926 396.445Z"/></svg>