<?xml version="1.0" encoding="utf-8" ?><svg xmlns="http://www.w3.org/2000/svg" xmlns:xlink="http://www.w3.org/1999/xlink" width="1024" height="1024" viewBox="0 0 1024 1024"><path fill="#518AFF" transform="scale(2 2)" d="M230.926 87.5382C221.64 87.7495 214.06 87.4816 206.948 80.6782C197.878 72.0022 197.171 57.5107 205.448 48.1111C214.594 37.7243 230.179 40.0949 242.743 40.0999L285.916 40.0943C322.485 40.1891 320.151 88.5535 285.506 87.678L280.645 87.5382C280.167 88.5628 280.264 89.1083 280.01 90.1061C280.067 89.0499 280.101 88.661 279.974 87.6257C278.597 87.3813 267.742 87.5279 265.554 87.5286L230.926 87.5382Z"/><path fill="#DADDFA" transform="scale(2 2)" d="M230.926 87.5382L265.554 87.5286C267.742 87.5279 278.597 87.3813 279.974 87.6257C280.101 88.661 280.067 89.0499 280.01 90.1061C280.57 96.9105 279.241 108.181 278.425 115.086C267.78 112.585 244.175 113.466 233.229 115.086C231.934 106.871 231.156 95.8828 230.926 87.5382Z"/><path fill="#1D3557" transform="scale(2 2)" d="M144.923 153.698C167.445 132.919 203.551 119.078 233.229 115.086C244.175 113.466 267.78 112.585 278.425 115.086C308.806 118.816 337.949 131.73 362.308 149.993C363.804 151.115 365.845 152.766 367.416 153.698C376.405 161.625 381.026 166.498 388.76 175.162C391.651 178.25 396.715 185.48 399.231 189.005C444.888 252.992 441.993 341.109 392.593 402.535C301.747 513.708 118.182 474.942 84.9326 331.474C71.5113 273.563 86.5303 220.591 122.807 175.162C129.18 167.738 136.791 159.268 144.923 153.698ZM253.765 145.232C173.98 146.626 110.436 212.444 111.847 292.229C113.257 372.013 179.087 435.544 258.872 434.117C338.633 432.691 402.141 366.884 400.731 287.122C399.321 207.36 333.527 143.839 253.765 145.232Z"/><path fill="#518AFF" transform="scale(2 2)" d="M134.148 143.252C132.553 144.247 113.079 163.3 112.377 164.84C91.1985 187.583 79.3714 162.911 87.8629 153.213C90.035 150.732 92.4161 148.527 94.7856 146.211L116.822 124.515C119.185 122.167 121.233 120.111 123.842 117.973C131.572 111.639 143.263 119.208 143.851 128.296C144.27 134.784 138.172 138.902 134.148 143.252Z"/><path fill="#518AFF" transform="scale(2 2)" d="M377.654 143.252C373.327 139.619 368.628 136.27 368.14 130.133C367.548 122.679 373.268 116.576 380.667 116.098C389.253 115.543 405.35 134.966 411.531 141.14C417.355 146.958 426.177 152.192 426.485 160.572C426.773 168.442 420.696 174.032 412.901 173.883C404.515 173.724 402.053 165.332 399.198 164.84C392.661 157.173 384.631 150.574 377.654 143.252Z"/><path fill="#DADDFA" transform="scale(2 2)" d="M112.377 164.84C113.079 163.3 132.553 144.247 134.148 143.252C136.838 145.049 143.233 151.059 144.923 153.698C136.791 159.268 129.18 167.738 122.807 175.162C119.135 171.311 116.257 168.476 112.377 164.84Z"/><path fill="#DADDFA" transform="scale(2 2)" d="M367.416 153.698C370.485 150.611 374.567 146.01 377.654 143.252C384.631 150.574 392.661 157.173 399.198 164.84C397.349 167.122 391.065 173.313 388.76 175.162C381.026 166.498 376.405 161.625 367.416 153.698Z"/><path fill="#1D3557" transform="scale(2 2)" d="M248.554 180.752L248.554 159.238L263.962 159.238L263.962 180.752C259.346 180.926 253.259 180.759 248.554 180.752Z"/><path fill="#F1F3FF" transform="scale(2 2)" d="M207.789 385.064C203.12 382.018 198.901 379.754 194.372 376.318C150.976 343.392 137.986 285.541 164.418 237.334C181.669 205.871 211.414 189.115 245.616 183.256C253.583 181.891 255.355 181.96 263.141 181.355C262.366 181.415 264.96 182.854 264.889 182.815C264.347 183.779 260.944 181.9 259.804 182.314L260.127 182.621L259.802 182.379C261.47 183.497 267.545 183.287 269.926 183.63C286.74 186.051 318.747 197.782 329.688 211.953C327.567 214.1 325.348 216.025 323.2 218.129L283.515 256.771C278.558 261.653 273.178 266.228 268.398 271.308L265.14 271.308C268.795 261.067 272.418 250.612 276.215 240.437L292.547 197.4C281.224 208.44 270.438 222.159 259.309 233.854L216.652 279.003C210.458 285.603 202.069 293.824 196.369 300.693L232.159 300.701C236.099 300.704 245.121 300.983 248.554 300.693C245.144 312.975 238.509 327.573 233.873 339.639L227.423 356.853C225.884 360.979 223.98 366.688 221.675 370.288C216.746 374.705 212.408 380.466 207.789 385.064Z"/><path fill="#2B7FFF" transform="scale(2 2)" d="M265.14 271.308L268.398 271.308C273.22 271.491 278.873 271.313 283.771 271.31L314.084 271.308C292.095 293.238 269.844 318.847 249.566 342.281L231.707 362.85C228.608 366.473 222.615 373.815 219.317 376.836C220.149 374.733 221.125 372.464 221.675 370.288C223.98 366.688 225.884 360.979 227.423 356.853L233.873 339.639C238.509 327.573 245.144 312.975 248.554 300.693C245.121 300.983 236.099 300.704 232.159 300.701L196.369 300.693C202.069 293.824 210.458 285.603 216.652 279.003L259.309 233.854C270.438 222.159 281.224 208.44 292.547 197.4L276.215 240.437C272.418 250.612 268.795 261.067 265.14 271.308Z"/><path fill="#DADDFA" transform="scale(2 2)" d="M329.688 211.953C349.93 232.667 361.416 258.322 361.51 287.527C361.544 292.967 361.379 297.829 360.921 303.257C361.936 303.251 363.093 303.213 364.094 303.257C363.034 303.277 361.979 303.319 360.921 303.257C355.049 349.276 322.358 384.842 277.275 395.468C272.892 396.501 268.37 396.85 263.962 397.793L263.99 414.756C263.997 416.256 264.149 420.824 263.962 422.026C263.798 420.695 263.934 415.85 263.937 414.29L263.962 397.793C258.176 397.87 252.75 397.885 246.97 397.793C247.056 399.466 247.09 400.357 246.97 402.041C246.907 400.747 246.96 399.117 246.97 397.793C230.867 393.666 224.363 394.296 207.789 385.064C212.408 380.466 216.746 374.705 221.675 370.288C221.125 372.464 220.149 374.733 219.317 376.836C222.615 373.815 228.608 366.473 231.707 362.85L249.566 342.281C269.844 318.847 292.095 293.238 314.084 271.308L283.771 271.31C278.873 271.313 273.22 271.491 268.398 271.308C273.178 266.228 278.558 261.653 283.515 256.771L323.2 218.129C325.348 216.025 327.567 214.1 329.688 211.953Z"/><path fill="#1D3557" transform="scale(2 2)" d="M127.752 294.351L127.752 284.749L142.637 284.749L142.637 294.351C138.204 294.513 132.424 294.303 127.752 294.351Z"/><path fill="#1D3557" transform="scale(2 2)" d="M361.51 287.527C368.405 287.525 375.58 287.415 382.451 287.527L382.451 303.257L364.094 303.257C363.093 303.213 361.936 303.251 360.921 303.257C361.379 297.829 361.544 292.967 361.51 287.527Z"/><path fill="#1D3557" transform="scale(2 2)" d="M246.97 402.041C247.09 400.357 247.056 399.466 246.97 397.793C252.75 397.885 258.176 397.87 263.962 397.793L263.937 414.29C263.934 415.85 263.798 420.695 263.962 422.026L263.784 423.016C262.957 423.466 249.12 423.233 246.97 423.246C246.629 416.653 246.965 408.839 246.97 402.041Z"/></svg>