<?xml version="1.0" encoding="utf-8" ?><svg xmlns="http://www.w3.org/2000/svg" xmlns:xlink="http://www.w3.org/1999/xlink" width="1024" height="1024" viewBox="0 0 1024 1024"><path fill="#2B7FFF" transform="scale(2 2)" d="M226.558 108.107C229.858 93.6157 240.748 82.7081 256.249 83.5371C256.17 86.2723 256.622 96.2849 255.5 97.9868C250.123 98.3415 245.955 102.825 245.992 108.213C239.538 108.106 233.019 108.127 226.558 108.107Z"/><path fill="#2B7FFF" transform="scale(2 2)" d="M256.249 83.5371C270.461 83.0594 284.2 93.6286 285.608 108.107C279.213 108.047 272.737 107.969 266.347 108C266.308 105.209 265.124 102.557 263.074 100.664C261.023 98.771 258.285 97.8031 255.5 97.9868C256.622 96.2849 256.17 86.2723 256.249 83.5371Z"/><path fill="#BBCFEE" transform="scale(2 2)" d="M192.51 126.339C192.778 119.885 190.956 108.626 201.242 108.211C209.634 107.873 218.162 108.25 226.558 108.107C233.019 108.127 239.538 108.106 245.992 108.213C246.031 113.849 250.641 118.38 256.276 118.321C261.912 118.262 266.426 113.635 266.347 108C272.737 107.969 279.213 108.047 285.608 108.107L300.849 108.084C319.601 107.944 319.553 109.252 319.532 126.339L319.532 154.046L192.51 154.046C192.484 150.158 192.833 142.965 192.51 139.448L192.51 126.339Z"/><path fill="#2B7FFF" transform="scale(2 2)" d="M138.962 392.225L138.936 145.969C138.907 123.995 145.86 126.326 163.694 126.329L192.51 126.339L192.51 139.448C192.451 145.084 192.498 150.761 192.51 156.4L165.044 156.4L165.044 392.225L138.962 392.225Z"/><path fill="#2B7FFF" transform="scale(2 2)" d="M319.532 126.339L347.054 126.327C365.66 126.328 373.804 125.004 373.781 146.811L373.762 392.225L347.484 392.225L347.484 156.4C343.403 156.326 339.116 156.396 335.018 156.4C329.838 155.884 319.817 158.67 319.532 154.046L319.532 126.339Z"/><path fill="#2B7FFF" transform="scale(2 2)" d="M192.51 139.448C192.833 142.965 192.484 150.158 192.51 154.046L319.532 154.046C319.817 158.67 329.838 155.884 335.018 156.4C329.883 156.428 324.641 156.333 319.532 156.4C317.659 168.188 310.567 167.135 301.423 167.042L217.495 167.031C207.256 167.03 194.977 169.736 192.51 156.4C192.498 150.761 192.451 145.084 192.51 139.448Z"/><path fill="#1D3557" transform="scale(2 2)" d="M325.397 220.223C312.607 220.601 297.669 220.221 284.726 220.223L260.848 220.236C256.65 220.237 252.546 220.15 248.018 220.204C239.043 220.311 236.94 210.84 245.202 208.232C247.986 208.066 252.532 208.225 255.468 208.225L307.002 208.224C316.24 208.225 327.555 204.967 330.842 214.259C329.996 217.846 328.955 219.189 325.397 220.223Z"/><path fill="#2B7FFF" transform="scale(2 2)" d="M198.256 229.913C202.134 225.977 214.189 212.963 218.67 212.061C223.779 212.056 226.451 216.574 224.195 221.315C223.308 223.178 201.223 243.066 198.875 244.956C194.341 247.097 190.89 241.266 188.421 238.354C183.494 232.538 175.965 224.858 188.421 222.096C192.235 223.221 195.412 227.061 198.256 229.913Z"/><path fill="#1D3557" transform="scale(2 2)" d="M325.397 243.411C322.285 243.65 318.145 243.426 314.895 243.42L247.053 243.396C238.597 243.454 237.443 233.395 245.202 231.509C248.33 231.295 253.8 231.498 257.085 231.5L309.392 231.506C314.443 231.506 319.564 231.467 324.608 231.568C331.66 231.709 333.586 241.98 325.397 243.411Z"/><path fill="#2B7FFF" transform="scale(2 2)" d="M218.67 312.363C210.017 313.351 195.916 312.382 186.632 312.429C182.129 312.412 182.82 306.849 182.883 303.701C183 297.896 180.451 275.006 185.9 273.542C193.889 273.344 202.227 273.726 210.073 273.551C224.45 273.23 221.946 276.369 221.915 288.649L221.898 309.307C220.856 310.875 220.336 311.492 218.67 312.363Z"/><path fill="#1D3557" transform="scale(2 2)" d="M299.125 286.493L263.551 286.498C257.552 286.499 240.407 289.159 240.099 280.926C239.803 272.974 250.031 274.595 255.279 274.597L272.31 274.615L306.298 274.602C314.538 274.601 328.466 271.573 330.842 280.53C329.12 288.391 323.071 286.552 316.57 286.52L299.125 286.493Z"/><path fill="#1D3557" transform="scale(2 2)" d="M325.397 310.584C322.503 310.793 318.084 310.592 315.012 310.591L264.904 310.592C261.253 310.591 245.659 311.515 242.938 309.6C237.826 305.999 240.358 299.401 245.932 298.523C249.745 298.337 255.181 298.515 259.121 298.515L310.473 298.517C315.243 298.518 320.037 298.463 324.802 298.651C332.658 298.96 332.535 309.03 325.397 310.584Z"/><path fill="#2B7FFF" transform="scale(2 2)" d="M183.687 377.678C182.447 374.225 182.12 344.403 183.521 342.026C184.208 340.859 185.535 340.54 186.759 340.258C197.485 340.097 208.585 340.247 219.343 340.258C221.937 342.651 221.875 343.627 221.871 347.104C221.865 353.237 224.526 377.246 218.67 378.949L197.642 378.982C193.729 378.992 186.774 379.642 183.687 377.678Z"/><path fill="#1D3557" transform="scale(2 2)" d="M326.403 353.907C323.857 354.112 319.171 353.916 316.404 353.914L263.185 353.911C257.852 353.916 248.956 354.313 243.621 353.502C240.062 352.96 237.289 344.613 245.202 342.252C247.567 342.115 251.207 342.244 253.682 342.244L321.518 342.249C327.9 342.291 330.987 342.684 330.842 350.103C329.614 352.06 328.566 353.172 326.403 353.907Z"/><path fill="#1D3557" transform="scale(2 2)" d="M326.403 377.678C324.782 377.844 321.442 377.695 319.699 377.689L264.302 377.682C258.193 377.682 250.056 377.899 243.908 377.235C238.963 375.648 238.177 368.741 244.507 365.717C247.997 365.508 253.971 365.709 257.652 365.71L312.493 365.71C316.858 365.699 322.208 365.432 326.32 365.89C331.185 366.433 333.131 374.559 326.403 377.678Z"/><defs><linearGradient id="gradient_0" gradientUnits="userSpaceOnUse" x1="256.10031" y1="427.60324" x2="256.47339" y2="391.30246"><stop offset="0" stop-color="#2B7FFF"/><stop offset="1" stop-color="#BBCFEE"/></linearGradient></defs><path fill="url(#gradient_0)" transform="scale(2 2)" d="M347.484 392.225L373.762 392.225L373.792 407.688C373.809 426.139 370.465 426.977 352.921 426.979L159.877 426.98C142.959 427.049 138.937 427.665 138.942 408.228L138.962 392.225L165.044 392.225L165.044 405.284L347.484 405.284L347.484 392.225Z"/></svg>