<?xml version="1.0" encoding="utf-8" ?><svg xmlns="http://www.w3.org/2000/svg" xmlns:xlink="http://www.w3.org/1999/xlink" width="1024" height="1024" viewBox="0 0 1024 1024"><path fill="#2B7FFF" transform="scale(2 2)" d="M390.579 185.385C397.776 177.874 405.262 170.61 412.653 163.289C419.075 156.927 426.361 146.587 436.312 146.375C444.708 146.196 449.747 153.44 455.223 158.706C472.356 175.182 467.816 178.892 453.136 194.025C444.442 202.987 435.906 212.254 426.785 220.781C419.072 212.397 410.646 204.117 402.192 196.445C398.647 192.597 394.67 188.656 390.579 185.385Z"/><path fill="#F1F3FF" transform="scale(2 2)" d="M58.4307 169.175C64.9087 168.822 71.557 169.183 78.0553 169.175C78.0603 163.519 78.5023 157.66 78.0553 152.043C81.592 151.682 85.1716 151.981 88.7199 152.016L106.026 152.046C138.543 152.024 161.029 152.014 188.588 174.525C191.392 176.815 201.935 186.205 202.622 189.247C204.317 189.353 205.827 185.049 206.831 183.828C214.061 175.037 223.498 168.588 233.484 163.344C255.944 151.548 267.49 151.964 292.791 152.05C299.322 152.073 319.536 150.935 324.923 153.66C327.938 158.674 326.744 186.077 326.736 192.375L326.692 232.723C326.673 235.849 327.155 246.976 326.552 249.155C325.012 254.713 304.595 270.453 304.075 273.533L304.398 273.579L303.224 275.061C298.299 271.527 289.723 273.03 283.899 273.028L235.675 273.029C230.057 273.032 218.219 271.064 219.924 280.482C221.081 286.87 232.945 284.688 237.44 284.687L284.255 284.725C287.339 284.729 290.618 285.044 293.673 284.711C291.524 286.827 288.483 289.198 287.104 291.859C285.74 295.445 284.798 299.233 283.72 302.915L278.415 321.054C276.745 326.852 274.917 332.608 273.414 338.453C279.678 337.051 286.074 335.826 292.247 334.074C300.93 331.652 309.83 329.8 318.611 327.749L319.496 328.062C319.302 328.587 319.413 328.399 319.236 328.664L319.432 328.906L319.863 328.803L320.08 327.78L320.585 327.874L320.751 328.358C321.364 328.492 321.798 328.524 322.422 328.448C322.157 325.527 329.09 330.804 324.512 333.368C323.814 335.34 325.627 338.558 325.058 339.824C324.355 341.392 320.094 343.244 320.357 344.892L320.558 345.135C316.995 345.638 313.262 345.135 309.644 345.476L311.609 345.685C305.683 346.349 299.962 345.67 294.032 345.702C278.925 345.782 264.18 346.411 248.894 346.126C232.833 345.828 216.369 350.137 205.824 363.283C204.994 364.318 202.643 367.056 202.705 368.341L202.903 368.58C202.497 369.473 202.123 370.403 201.655 371.263C196.539 358.007 180.311 349.941 167.335 347.197C158.437 345.316 143.589 346.146 134.002 346.146L78.0553 346.146L78.0553 169.175C71.5621 169.146 64.895 169.592 58.4307 169.175ZM107.969 215.603C99.9489 216.22 99.9903 226.89 107.234 227.495C113.816 228.044 121.848 227.455 128.572 227.453L176.951 227.454C184.423 226.933 184.419 216.384 177.913 215.682C175.25 215.395 172.444 215.576 169.764 215.58L107.969 215.603ZM293.673 215.603L233.92 215.602C230.596 215.604 224.143 214.685 221.536 217.265C219.533 219.248 219.035 223.624 221.353 225.583C223.897 227.732 228.151 227.177 231.251 227.454L290.965 227.462C294.1 227.461 300.355 228.345 302.817 225.913C309.425 219.385 300.571 215.507 293.673 215.603ZM111.254 244.499C97.0058 243.319 101.329 255.197 107.191 255.952C114.72 256.922 123.177 256.332 130.804 256.332L174.667 256.328C182.811 255.347 186.269 248.46 180.039 244.724C177.438 243.165 168.444 244.501 165.339 244.501L111.254 244.499ZM225.645 244.499C217.667 245.367 217.915 255.58 225.254 256.181C229.885 256.561 234.681 256.335 239.328 256.336L287.587 256.338C291.267 256.337 295.153 256.6 298.811 256.328C304.277 255.904 306.971 249.503 302.284 245.828C299.447 243.604 293.931 244.49 290.583 244.49L225.645 244.499ZM106.442 273.032C101.312 274.454 100.362 281.398 105.187 283.987C108.405 285.714 128.882 284.72 133.5 284.72L178.393 284.711C183.493 282.77 184.685 274.682 179.071 272.804C177.631 272.323 168.011 273.037 165.73 273.033L121.253 273.032C118.252 273.03 108.623 272.504 106.442 273.032ZM129.362 301.667C124.582 301.656 109.775 301.106 106.189 301.995C100.165 303.488 101.036 312.4 107.176 313.304C111.962 314.009 118.538 313.519 123.499 313.518L156.312 313.502L170.019 313.534C172.698 313.548 175.679 313.899 178.308 313.37C184.541 312.116 184.272 302.866 177.994 301.873C173.503 301.163 167.017 301.656 162.33 301.656L129.362 301.667ZM255.33 301.667C244.683 301.773 233.907 301.211 223.283 301.667C215.36 306.986 219.849 313.212 229.601 313.502L248.087 313.514C252.05 313.509 256.664 313.86 260.527 312.991C265.817 311.801 267.968 301.03 255.33 301.667Z"/><path fill="#2B7FFF" transform="scale(2 2)" d="M355.93 169.175C356.223 171.512 355.984 174.031 355.963 176.391L355.935 209.192C355.949 212.677 356.194 216.18 355.93 219.658C353.521 224.078 332.386 244.874 327.098 249.775L327.098 169.175L355.93 169.175Z"/><path fill="#BBCFEE" transform="scale(2 2)" d="M78.0553 373.973C75.7533 374.338 58.0742 374.209 56.4235 373.861C45.9609 371.658 47.2561 362.725 47.2545 354.67L47.2509 190.121C47.2495 176.982 43.7017 170.145 58.4307 169.175C64.895 169.592 71.5621 169.146 78.0553 169.175L78.0553 346.146C78.1671 355.418 78.0662 364.7 78.0553 373.973Z"/><path fill="#BBCFEE" transform="scale(2 2)" d="M355.93 219.658C364.74 213.306 382.367 194.187 390.579 185.385C394.67 188.656 398.647 192.597 402.192 196.445C398.106 196.283 375.247 222.132 370.952 226.503L317.858 280.426C314.765 283.597 299.169 300.619 297.487 301.667C294.773 297.742 290.708 294.915 287.104 291.859C288.483 289.198 291.524 286.827 293.673 284.711C296.949 281.661 300.267 278.419 303.224 275.061L304.398 273.579C310.853 267.342 322.178 256.466 327.098 249.775C332.386 244.874 353.521 224.078 355.93 219.658Z"/><path fill="#BBCFEE" transform="scale(2 2)" d="M402.192 196.445C410.646 204.117 419.072 212.397 426.785 220.781C413.479 233.941 401.076 247.94 387.988 261.305C380.234 269.223 361.554 286.273 355.93 295.015C352.252 297.785 327.059 323.86 326.75 326.392L326.75 326.392C321.905 326.197 303.331 305.884 297.487 301.667C299.169 300.619 314.765 283.597 317.858 280.426L370.952 226.503C375.247 222.132 398.106 196.283 402.192 196.445Z"/><path fill="#1D3557" transform="scale(2 2)" d="M176.951 227.454L128.572 227.453C121.848 227.455 113.816 228.044 107.234 227.495C99.9903 226.89 99.9489 216.22 107.969 215.603L169.764 215.58C172.444 215.576 175.25 215.395 177.913 215.682C184.419 216.384 184.423 226.933 176.951 227.454Z"/><path fill="#1D3557" transform="scale(2 2)" d="M231.251 227.454C228.151 227.177 223.897 227.732 221.353 225.583C219.035 223.624 219.533 219.248 221.536 217.265C224.143 214.685 230.596 215.604 233.92 215.602L293.673 215.603C300.571 215.507 309.425 219.385 302.817 225.913C300.355 228.345 294.1 227.461 290.965 227.462L231.251 227.454Z"/><path fill="#1D3557" transform="scale(2 2)" d="M174.667 256.328L130.804 256.332C123.177 256.332 114.72 256.922 107.191 255.952C101.329 255.197 97.0058 243.319 111.254 244.499L165.339 244.501C168.444 244.501 177.438 243.165 180.039 244.724C186.269 248.46 182.811 255.347 174.667 256.328Z"/><path fill="#1D3557" transform="scale(2 2)" d="M298.811 256.328C295.153 256.6 291.267 256.337 287.587 256.338L239.328 256.336C234.681 256.335 229.885 256.561 225.254 256.181C217.915 255.58 217.667 245.367 225.645 244.499L290.583 244.49C293.931 244.49 299.447 243.604 302.284 245.828C306.971 249.503 304.277 255.904 298.811 256.328Z"/><path fill="#1D3557" transform="scale(2 2)" d="M178.393 284.711L133.5 284.72C128.882 284.72 108.405 285.714 105.187 283.987C100.362 281.398 101.312 274.454 106.442 273.032C108.623 272.504 118.252 273.03 121.253 273.032L165.73 273.033C168.011 273.037 177.631 272.323 179.071 272.804C184.685 274.682 183.493 282.77 178.393 284.711Z"/><path fill="#1D3557" transform="scale(2 2)" d="M293.673 284.711C290.618 285.044 287.339 284.729 284.255 284.725L237.44 284.687C232.945 284.688 221.081 286.87 219.924 280.482C218.219 271.064 230.057 273.032 235.675 273.029L283.899 273.028C289.723 273.03 298.299 271.527 303.224 275.061C300.267 278.419 296.949 281.661 293.673 284.711Z"/><path fill="#FBC579" transform="scale(2 2)" d="M278.415 321.054L283.72 302.915C284.798 299.233 285.74 295.445 287.104 291.859C290.708 294.915 294.773 297.742 297.487 301.667C303.331 305.884 321.905 326.197 326.75 326.392L325.077 326.538C322.915 326.732 320.729 327.278 318.611 327.749C309.83 329.8 300.93 331.652 292.247 334.074C287.765 329.623 283.069 325.327 278.415 321.054Z"/><path fill="#2B7FFF" transform="scale(2 2)" d="M326.75 326.392C327.059 323.86 352.252 297.785 355.93 295.015C355.769 300.511 355.928 306.039 355.933 311.539L355.949 343.386C355.951 355.542 358.973 374.824 340.253 374.179C327.239 373.731 314.164 373.971 301.141 373.971L226.769 373.974C214.384 373.974 201.932 374.255 189.554 373.973C190.55 373.5 199.874 373.936 201.655 373.973C201.727 373.068 201.857 372.157 201.655 371.263C202.123 370.403 202.497 369.473 202.903 368.58C217.816 343.432 245.707 346.144 270.419 346.144L326.75 346.146C326.337 342.938 326.406 329.744 326.75 326.392Z"/><path fill="#1D3557" transform="scale(2 2)" d="M156.312 313.502L123.499 313.518C118.538 313.519 111.962 314.009 107.176 313.304C101.036 312.4 100.165 303.488 106.189 301.995C109.775 301.106 124.582 301.656 129.362 301.667L162.33 301.656C167.017 301.656 173.503 301.163 177.994 301.873C184.272 302.866 184.541 312.116 178.308 313.37C175.679 313.899 172.698 313.548 170.019 313.534L156.312 313.502Z"/><path fill="#1D3557" transform="scale(2 2)" d="M223.283 301.667C233.907 301.211 244.683 301.773 255.33 301.667C267.968 301.03 265.817 311.801 260.527 312.991C256.664 313.86 252.05 313.509 248.087 313.514L229.601 313.502C219.849 313.212 215.36 306.986 223.283 301.667Z"/><path fill="#2B7FFF" transform="scale(2 2)" d="M273.414 338.453C274.917 332.608 276.745 326.852 278.415 321.054C283.069 325.327 287.765 329.623 292.247 334.074C286.074 335.826 279.678 337.051 273.414 338.453Z"/><path fill="#F1F3FF" transform="scale(2 2)" d="M326.75 326.392L326.75 326.392C326.406 329.744 326.337 342.938 326.75 346.146L270.419 346.144C245.707 346.144 217.816 343.432 202.903 368.58L202.705 368.341C202.643 367.056 204.994 364.318 205.824 363.283C216.369 350.137 232.833 345.828 248.894 346.126C264.18 346.411 278.925 345.782 294.032 345.702C299.962 345.67 305.683 346.349 311.609 345.685L309.644 345.476C313.262 345.135 316.995 345.638 320.558 345.135L320.357 344.892C320.094 343.244 324.355 341.392 325.058 339.824C325.627 338.558 323.814 335.34 324.512 333.368C329.09 330.804 322.157 325.527 322.422 328.448C321.798 328.524 321.364 328.492 320.751 328.358L320.585 327.874L320.08 327.78L319.863 328.803L319.432 328.906L319.236 328.664C319.413 328.399 319.302 328.587 319.496 328.062L318.611 327.749C320.729 327.278 322.915 326.732 325.077 326.538L326.75 326.392Z"/><path fill="#2B7FFF" transform="scale(2 2)" d="M78.0553 346.146L134.002 346.146C143.589 346.146 158.437 345.316 167.335 347.197C180.311 349.941 196.539 358.007 201.655 371.263C201.857 372.157 201.727 373.068 201.655 373.973C199.874 373.936 190.55 373.5 189.554 373.973L78.0553 373.973C78.0662 364.7 78.1671 355.418 78.0553 346.146Z"/></svg>