<?xml version="1.0" encoding="utf-8" ?><svg xmlns="http://www.w3.org/2000/svg" xmlns:xlink="http://www.w3.org/1999/xlink" width="1012" height="1012" viewBox="0 0 1012 1012"><path fill="#FEFEFE" transform="scale(1.97656 1.97656)" d="M179.292 115.978C185.874 114.824 201.653 115.263 209.001 115.262L285.327 115.28C288.2 115.296 292.773 115.469 295.512 115.262C295.174 124.207 295.677 133.425 295.618 142.475C295.559 151.613 301.414 157.794 310.681 157.65C319.395 157.254 328.841 158.095 337.491 157.576C336.897 164.743 337.725 174.535 337.491 182.286L337.491 195.631L337.498 296.745C337.503 309.554 340.811 314.918 326.256 314.747L206.294 314.711C200.833 314.707 179.758 316.231 176.205 313.322C174.169 311.655 174.959 298.567 174.96 295.985L174.967 195.631C174.986 191.843 176.683 182.497 173.163 182.286C177.351 181.723 175.002 173.032 174.976 168.625L174.955 142.112C174.953 133.938 172.976 121.461 179.292 115.978ZM206.98 160.527C201.985 161.83 199.099 166.738 204.494 169.95C206.98 171.43 266.365 170.786 278.013 170.467C284.414 169.01 282.676 160.49 276.758 160.556C253.574 160.815 230.141 160.094 206.98 160.527ZM246.818 197.016C240.744 198.265 241.359 206.676 248.049 206.729L298.598 206.785C301.008 206.787 304.486 206.939 306.786 206.777C312.826 205.743 312.429 197.155 306.002 197.049C299.232 196.938 292.472 197.014 285.702 197.014L246.818 197.016ZM205.08 197.016C200.542 199.91 200.237 204.06 205.08 206.777L229.943 206.777C232.224 205.897 232.805 204.219 233.284 201.94C230.851 193.207 213.955 197.261 205.08 197.016ZM246.818 228.993C245.348 229.547 243.668 230.183 243.215 231.662C240.764 239.667 248.786 238.722 253.667 238.713L301.473 238.717C302.933 238.724 305.988 238.842 307.342 238.704C311.529 236.52 312.914 230.828 307.614 229.156C306.103 228.679 301.113 228.955 299.225 228.968L260.259 228.985C256.233 228.984 250.681 228.799 246.818 228.993ZM205.08 228.993C198.63 232.357 201.252 238.644 209.584 238.678C216.363 238.705 223.17 238.805 229.943 238.704C233.48 236.758 233.837 230.181 230.35 229.603C222.25 228.26 213.291 229.393 205.08 228.993ZM206.98 260.29C201.767 261.137 199.052 266.721 204.39 269.51C206.915 270.829 224.414 270.154 228.307 270.163C232.936 269.411 234.74 262.991 230.509 260.726C228.624 259.717 210.534 260.283 206.98 260.29ZM246.818 260.29C241.289 261.545 241.221 267.129 245.639 270.163C252.054 270.439 260.74 270.163 267.353 270.163L306.786 270.163C313.149 268.914 312.099 260.357 305.99 260.322C286.307 260.208 266.496 259.814 246.818 260.29Z"/><path fill="#1D3557" transform="scale(1.97656 1.97656)" d="M295.512 115.262C301.515 117.869 337.185 155.567 337.491 157.576C328.841 158.095 319.395 157.254 310.681 157.65C301.414 157.794 295.559 151.613 295.618 142.475C295.677 133.425 295.174 124.207 295.512 115.262Z"/><path fill="#1D3557" transform="scale(1.97656 1.97656)" d="M278.013 170.467C266.365 170.786 206.98 171.43 204.494 169.95C199.099 166.738 201.985 161.83 206.98 160.527C230.141 160.094 253.574 160.815 276.758 160.556C282.676 160.49 284.414 169.01 278.013 170.467Z"/><path fill="#1D3557" transform="scale(1.97656 1.97656)" d="M106.446 346.876L106.474 198.737C106.311 185.24 113.015 181.973 125.119 182.233C141.093 182.576 157.194 181.982 173.163 182.286C176.683 182.497 174.986 191.843 174.967 195.631C156.725 195.332 137.557 195.632 119.239 195.631L119.246 296.331C119.244 313.042 119.02 330.2 119.239 346.876L106.446 346.876Z"/><path fill="#1D3557" transform="scale(1.97656 1.97656)" d="M337.491 182.286C354.667 182.462 371.756 182.198 389.078 182.277C407.957 182.362 405.799 196.351 405.768 209.357L405.756 346.876L392.01 346.876L392.01 195.631C390.344 195.866 387.245 195.695 385.463 195.669L337.491 195.631L337.491 182.286Z"/><path fill="#BBCFEE" transform="scale(1.97656 1.97656)" d="M119.239 195.631C137.557 195.632 156.725 195.332 174.967 195.631L174.96 295.985C174.959 298.567 174.169 311.655 176.205 313.322C179.758 316.231 200.833 314.707 206.294 314.711L326.256 314.747C340.811 314.918 337.503 309.554 337.498 296.745L337.491 195.631L385.463 195.669C387.245 195.695 390.344 195.866 392.01 195.631L392.01 346.876L294.266 346.876C293.163 346.634 281.003 346.88 278.921 346.881L232.876 346.877C231.686 346.877 217.578 346.71 217.147 346.876L119.239 346.876C119.02 330.2 119.244 313.042 119.246 296.331L119.239 195.631Z"/><path fill="#2B7FFF" transform="scale(1.97656 1.97656)" d="M306.786 206.777C304.486 206.939 301.008 206.787 298.598 206.785L248.049 206.729C241.359 206.676 240.744 198.265 246.818 197.016L285.702 197.014C292.472 197.014 299.232 196.938 306.002 197.049C312.429 197.155 312.826 205.743 306.786 206.777Z"/><path fill="#2B7FFF" transform="scale(1.97656 1.97656)" d="M205.08 206.777C200.237 204.06 200.542 199.91 205.08 197.016C213.955 197.261 230.851 193.207 233.284 201.94C232.805 204.219 232.224 205.897 229.943 206.777L205.08 206.777Z"/><path fill="#2B7FFF" transform="scale(1.97656 1.97656)" d="M307.342 238.704C305.988 238.842 302.933 238.724 301.473 238.717L253.667 238.713C248.786 238.722 240.764 239.667 243.215 231.662C243.668 230.183 245.348 229.547 246.818 228.993C250.681 228.799 256.233 228.984 260.259 228.985L299.225 228.968C301.113 228.955 306.103 228.679 307.614 229.156C312.914 230.828 311.529 236.52 307.342 238.704Z"/><path fill="#1D3557" transform="scale(1.97656 1.97656)" d="M229.943 238.704C223.17 238.805 216.363 238.705 209.584 238.678C201.252 238.644 198.63 232.357 205.08 228.993C213.291 229.393 222.25 228.26 230.35 229.603C233.837 230.181 233.48 236.758 229.943 238.704Z"/><path fill="#1D3557" transform="scale(1.97656 1.97656)" d="M228.307 270.163C224.414 270.154 206.915 270.829 204.39 269.51C199.052 266.721 201.767 261.137 206.98 260.29C210.534 260.283 228.624 259.717 230.509 260.726C234.74 262.991 232.936 269.411 228.307 270.163Z"/><path fill="#2B7FFF" transform="scale(1.97656 1.97656)" d="M245.639 270.163C241.221 267.129 241.289 261.545 246.818 260.29C266.496 259.814 286.307 260.208 305.99 260.322C312.099 260.357 313.149 268.914 306.786 270.163L267.353 270.163C260.74 270.163 252.054 270.439 245.639 270.163Z"/><path fill="#FEFEFE" transform="scale(1.97656 1.97656)" d="M217.147 346.876C217.578 346.71 231.686 346.877 232.876 346.877L278.921 346.881C281.003 346.88 293.163 346.634 294.266 346.876C294.257 352.776 292.299 360.201 285.235 360.831C278.067 361.471 269.815 361.235 262.631 361.239L240.767 361.245C228.861 361.241 217.089 363.402 217.147 346.876Z"/><path fill="#2B7FFF" transform="scale(1.97656 1.97656)" d="M294.266 346.876L392.01 346.876L405.756 346.876L431.889 346.876L431.916 361.495C431.93 365.459 432.218 369.427 431.279 373.001C426.81 390 414.502 392.736 399.47 392.739L108.125 392.725C86.5456 392.634 80.2465 377.967 80.2489 359.644L80.2597 346.876C88.9146 346.886 97.81 346.999 106.446 346.876L119.239 346.876L217.147 346.876C217.089 363.402 228.861 361.241 240.767 361.245L262.631 361.239C269.815 361.235 278.067 361.471 285.235 360.831C292.299 360.201 294.257 352.776 294.266 346.876Z"/></svg>